<?xml version="1.0" encoding="UTF-8"?>
<svg xmlns="http://www.w3.org/2000/svg" xmlns:xlink="http://www.w3.org/1999/xlink" width="16px" height="16px" viewBox="0 0 16 16" version="1.1">
<g id="surface1">
<path style=" stroke:none;fill-rule:nonzero;fill:rgb(0%,0%,0%);fill-opacity:1;" d="M 2.492188 5.542969 L 5.367188 13.425781 C 3.355469 12.449219 1.96875 10.386719 1.96875 8 C 1.96875 7.125 2.15625 6.296875 2.492188 5.542969 Z M 12.070312 7.695312 C 12.070312 6.949219 11.804688 6.433594 11.574219 6.03125 C 11.269531 5.535156 10.980469 5.113281 10.980469 4.617188 C 10.980469 4.058594 11.398438 3.542969 11.992188 3.542969 C 12.019531 3.542969 12.042969 3.546875 12.070312 3.550781 C 11 2.570312 9.570312 1.964844 8 1.964844 C 5.894531 1.964844 4.039062 3.046875 2.960938 4.683594 C 3.101562 4.691406 3.234375 4.695312 3.347656 4.695312 C 3.976562 4.695312 4.953125 4.617188 4.953125 4.617188 C 5.277344 4.601562 5.316406 5.078125 4.992188 5.117188 C 4.992188 5.117188 4.667969 5.152344 4.304688 5.171875 L 6.503906 11.703125 L 7.824219 7.742188 L 6.886719 5.167969 C 6.5625 5.148438 6.257812 5.113281 6.257812 5.113281 C 5.929688 5.09375 5.96875 4.597656 6.292969 4.617188 C 6.292969 4.617188 7.289062 4.691406 7.882812 4.691406 C 8.507812 4.691406 9.488281 4.617188 9.488281 4.617188 C 9.8125 4.597656 9.851562 5.074219 9.527344 5.113281 C 9.527344 5.113281 9.203125 5.148438 8.839844 5.167969 L 11.023438 11.652344 L 11.621094 9.644531 C 11.871094 8.808594 12.070312 8.210938 12.070312 7.695312 Z M 8.105469 8.527344 L 6.296875 13.789062 C 6.835938 13.945312 7.410156 14.035156 8 14.035156 C 8.703125 14.035156 9.375 13.914062 10.003906 13.691406 C 9.988281 13.664062 9.972656 13.636719 9.960938 13.609375 Z M 13.292969 5.105469 C 13.320312 5.300781 13.335938 5.503906 13.335938 5.726562 C 13.335938 6.339844 13.222656 7.027344 12.875 7.886719 L 11.03125 13.214844 C 12.824219 12.167969 14.03125 10.226562 14.03125 8.003906 C 14.03125 6.949219 13.761719 5.964844 13.292969 5.105469 Z M 15.03125 8 C 15.03125 11.878906 11.875 15.03125 8 15.03125 C 4.121094 15.03125 0.96875 11.875 0.96875 8 C 0.96875 4.121094 4.121094 0.96875 8 0.96875 C 11.875 0.96875 15.03125 4.121094 15.03125 8 Z M 14.710938 8 C 14.710938 4.300781 11.695312 1.289062 8 1.289062 C 4.300781 1.289062 1.289062 4.300781 1.289062 8 C 1.289062 11.699219 4.304688 14.710938 8 14.710938 C 11.699219 14.710938 14.710938 11.699219 14.710938 8 Z M 14.710938 8 "/>
</g>
</svg>
